:SAMPLES-PER-SECOND 30
:FULLY-SPECIFIED
:DEGREES
74
root  -27.3031 39.1356 -21.9424 -169.873 -76.1995 164.443
RightUpLeg  -25.5875 -11.3621 -9.22909
RightLeg  53.984 -4.4795 -6.97565
RightFoot  5.44894 -0.418432 3.08378
RightToes  0.00048216 0.542163 -0.142577
Spine  32.562 -1.17395 -1.23197
Spine1  14.1981 -0.472449 -3.57422
HEad  0.390563 2.41063 -6.74029
LeftShoulder1  8.61596 -14.8595 -40.6322
LeftArm  -13.4197 -3.55387 -26.2634
LeftForeArm  24.2396 -24.5068 -3.9105
LeftHand  -0.25398 0.0180481 5.50724
RightShoulder  5.65185 10.9546 33.1451
RightArm  -6.87409 16.7726 33.4369
RightForeArm  8.74484 13.0127 6.54485
RightHand  -0.934311 3.32026 -12.7049
LeftUpLeg  -15.2857 20.6431 -12.5614
LeftLeg  23.5614 7.04528 3.69493
LeftFoot  -8.17322 -0.204456 9.16536
LeftToes  1.06245e-005 4.65855e-005 -8.18504e-006
75
root  -28.0328 39.293 -22.4462 -165.29 -78.055 160.892
RightUpLeg  -26.8437 -11.2479 -9.06296
RightLeg  41.7262 -6.0479 -6.08147
RightFoot  4.81422 -0.386696 2.9565
RightToes  0.00048216 0.542163 -0.142577
Spine  34.2954 -1.53744 -1.06426
Spine1  14.3866 -0.989733 -3.01379
HEad  -1.55397 1.29841 -6.41884
LeftShoulder1  8.5181 -15.065 -39.6403
LeftArm  -15.0275 -7.36708 -27.3058
LeftForeArm  24.5443 -26.9578 -4.47655
LeftHand  -0.25398 0.0180481 5.50724
RightShoulder  5.73085 11.2418 32.9187
RightArm  -9.3265 18.9557 32.9229
RightForeArm  11.1879 9.62553 6.88227
RightHand  -0.886269 3.23837 -12.183
LeftUpLeg  -14.6039 18.8631 -12.3491
LeftLeg  23.0545 6.6037 3.41512
LeftFoot  -8.66952 -0.150675 8.685
LeftToes  1.06245e-005 4.65855e-005 -8.18504e-006
76
root  -28.8412 39.3877 -22.9749 -157.556 -80.0271 154.479
RightUpLeg  -27.0166 -13.9798 -8.49927
RightLeg  27.4868 -5.39702 -3.49289
RightFoot  4.01559 -0.619449 4.82123
RightToes  0.00048216 0.542163 -0.142577
Spine  35.7739 -2.20135 -0.548937
Spine1  14.3375 -1.54406 -2.87961
HEad  -3.60712 -0.050149 -6.00568
LeftShoulder1  8.34651 -15.2102 -38.4263
LeftArm  -15.6834 -11.4563 -28.405
LeftForeArm  22.7219 -27.1321 -4.61569
LeftHand  -0.25398 0.0180481 5.50724
RightShoulder  5.86408 11.6662 32.7085
RightArm  -10.5016 20.5846 32.3388
RightForeArm  11.7149 7.41557 6.81673
RightHand  -0.922068 3.51761 -12.2833
LeftUpLeg  -14.4893 16.4395 -12.3382
LeftLeg  23.3119 6.54174 3.42426
LeftFoot  -9.34534 -0.0812883 7.8627
LeftToes  1.06245e-005 4.65855e-005 -8.18504e-006
77
root  -29.7152 39.3781 -23.5546 -144.165 -81.8809 142.323
RightUpLeg  -26.2196 -17.7423 -8.13864
RightLeg  14.4801 -5.07094 -0.668053
RightFoot  2.75756 -0.904699 7.43655
RightToes  0.00048216 0.542163 -0.142577
Spine  37.1226 -2.93074 0.0623661
Spine1  14.3573 -2.12583 -2.75691
HEad  -5.732 -1.69055 -5.37428
LeftShoulder1  8.38107 -15.5552 -37.8217
LeftArm  -15.9653 -15.7664 -28.6468
LeftForeArm  20.4082 -25.5231 -4.37791
LeftHand  -0.25398 0.0180481 5.50724
RightShoulder  5.93488 12.0131 32.2981
RightArm  -11.1865 21.7639 31.9387
RightForeArm  10.743 6.2092 6.69607
RightHand  -1.00652 3.92061 -12.8294
LeftUpLeg  -14.6279 13.7429 -12.4564
LeftLeg  24.501 6.43699 3.54157
LeftFoot  -10.5514 0.0152741 7.05089
LeftToes  1.06245e-005 4.65855e-005 -8.18504e-006
78
root  -30.5684 39.2409 -24.1842 -123.056 -83.0749 122.059
RightUpLeg  -24.6522 -15.0514 -11.3115
RightLeg  6.88827 -12.2766 2.34704
RightFoot  2.94991 -0.968293 7.8606
RightToes  0.00048216 0.542163 -0.142577
Spine  38.4459 -3.42865 0.83244
Spine1  15.0714 -2.64587 -2.18955
HEad  -7.96034 -3.84848 -4.48181
LeftShoulder1  8.73685 -16.3499 -37.8462
LeftArm  -15.6509 -20.4056 -28.0596
LeftForeArm  18.9083 -22.9007 -3.97961
LeftHand  -0.25398 0.0180481 5.50724
RightShoulder  5.90492 12.1465 31.7772
RightArm  -12.0999 22.8948 31.4292
RightForeArm  9.15346 5.44224 6.60376
RightHand  -1.09252 4.32757 -13.3411
LeftUpLeg  -14.8007 10.8985 -12.6626
LeftLeg  26.3736 6.31382 3.7421
LeftFoot  -12.2131 0.122662 6.55198
LeftToes  1.06245e-005 4.65855e-005 -8.18504e-006
79
root  -31.3284 38.9805 -24.8261 -98.8982 -83.3251 98.5032
RightUpLeg  -25.5831 -14.8578 -12.2776
RightLeg  7.23769 -14.7741 2.72163
RightFoot  6.58508 -0.717462 4.9606
RightToes  0.00048216 0.542163 -0.142577
Spine  39.9983 -3.82346 2.47691
Spine1  16.0378 -2.78715 -1.64555
HEad  -10.0774 -6.73414 -3.50738
LeftShoulder1  9.28569 -17.6021 -37.8276
LeftArm  -14.9638 -25.3015 -27.4632
LeftForeArm  19.1946 -19.7264 -3.94846
LeftHand  -0.25398 0.0180481 5.50724
RightShoulder  5.7978 12.0693 31.2728
RightArm  -13.3862 24.0254 30.4158
RightForeArm  7.37898 4.75392 6.45072
RightHand  -1.17145 4.80665 -13.641
LeftUpLeg  -16.0938 8.48474 -12.6108
LeftLeg  30.3241 6.12777 4.20677
LeftFoot  -13.3438 0.169681 5.22639
LeftToes  1.06245e-005 4.65855e-005 -8.18504e-006
80
root  -32.005 38.6135 -25.4521 -81.2075 -83.3433 81.4749
RightUpLeg  -28.9566 -17.9766 -10.1804
RightLeg  12.6461 -10.8508 1.60291
RightFoot  11.9837 0.162931 -0.364118
RightToes  0.00048216 0.542163 -0.142577
Spine  42.2893 -4.43118 5.15547
Spine1  16.003 -2.28719 -1.92864
HEad  -11.9896 -9.78072 -2.66196
LeftShoulder1  9.72486 -18.81 -37.4136
LeftArm  -14.7519 -30.1895 -27.2047
LeftForeArm  21.1429 -16.5277 -4.46734
LeftHand  -0.25398 0.0180481 5.50724
RightShoulder  5.63613 12.0044 30.3765
RightArm  -15.0272 25.3268 29.216
RightForeArm  5.95673 3.91306 6.17083
RightHand  -1.1958 5.10826 -13.5365
LeftUpLeg  -20.1629 7.73191 -11.7436
LeftLeg  38.5448 5.61499 5.15996
LeftFoot  -12.2028 0.102512 2.35743
LeftToes  1.06245e-005 4.65855e-005 -8.18504e-006
81
root  -32.6062 38.2604 -26.0387 -72.8616 -84.1862 74.0474
RightUpLeg  -33.7564 -23.7837 -4.25888
RightLeg  18.2591 -2.90682 0.700773
RightFoot  14.3097 1.3383 -5.51926
RightToes  0.00048216 0.542163 -0.142577
Spine  45.531 -5.16033 7.98591
Spine1  15.1114 -1.36119 -2.77189
HEad  -14.3633 -11.8594 -1.84528
LeftShoulder1  9.83248 -19.4561 -36.6684
LeftArm  -15.5382 -35.0312 -26.7846
LeftForeArm  23.1674 -13.9158 -5.0652
LeftHand  -0.25398 0.0180481 5.50724
RightShoulder  5.45069 12.2579 28.5828
RightArm  -17.0235 27.8641 28.269
RightForeArm  5.30412 2.40941 5.70898
RightHand  -1.12953 5.00825 -12.9265
LeftUpLeg  -26.6324 9.05548 -10.0294
LeftLeg  48.901 5.1127 6.71248
LeftFoot  -7.33041 0.0388271 0.00202632
LeftToes  1.06245e-005 4.65855e-005 -8.18504e-006
82
root  -33.1273 37.9773 -26.5695 -72.1049 -85.8185 74.6186
RightUpLeg  -38.5163 -26.6765 1.68216
RightLeg  23.1976 0.833126 -0.0201161
RightFoot  11.9278 1.75038 -8.07101
RightToes  0.00048216 0.542163 -0.142577
Spine  48.6169 -5.36146 9.96463
Spine1  15.0006 -0.513694 -2.61971
HEad  -18.1308 -12.696 -1.02008
LeftShoulder1  9.80964 -19.8433 -35.8756
LeftArm  -17.5549 -40.1205 -25.5434
LeftForeArm  24.0355 -12.0405 -5.35087
LeftHand  -0.25398 0.0180481 5.50724
RightShoulder  5.17125 12.7683 25.6786
RightArm  -19.8601 32.6293 27.113
RightForeArm  4.92985 -0.17177 4.96693
RightHand  -1.065 4.93815 -12.2972
LeftUpLeg  -33.7336 11.4574 -8.32836
LeftLeg  56.9248 4.8827 8.53018
LeftFoot  -1.77744 -0.0294606 0.398649
LeftToes  1.06245e-005 4.65855e-005 -8.18504e-006
83
root  -33.6079 37.8453 -27.0734 -75.1477 -86.556 79.7519
RightUpLeg  -41.7694 -26.1199 4.05712
RightLeg  26.2482 0.0591243 -0.204234
RightFoot  8.96119 1.59029 -8.50835
RightToes  0.00048216 0.542163 -0.142577
Spine  51.0917 -4.73133 10.1751
Spine1  15.9645 -0.0555477 -1.05248
HEad  -22.8012 -13.0214 -0.453926
LeftShoulder1  9.99409 -20.6458 -35.2456
LeftArm  -20.4444 -45.1802 -23.4182
LeftForeArm  23.8649 -10.6274 -5.37034
LeftHand  -0.25398 0.0180481 5.50724
RightShoulder  4.74131 13.1642 22.1609
RightArm  -23.8391 38.6288 24.8478
RightForeArm  3.57447 -3.12389 4.01838
RightHand  -1.10539 5.40106 -12.2289
LeftUpLeg  -39.7954 13.3595 -8.36112
LeftLeg  59.0186 4.86058 9.20528
LeftFoot  -0.616729 -0.20352 2.29676
LeftToes  1.06245e-005 4.65855e-005 -8.18504e-006
84
root  -34.0851 37.9152 -27.566 -73.0069 -85.795 80.4237
RightUpLeg  -44.7287 -26.0956 5.27333
RightLeg  27.1181 0.207055 -0.120412
RightFoot  8.20889 1.61301 -9.00572
RightToes  0.00048216 0.542163 -0.142577
Spine  54.543 -4.43516 9.38119
Spine1  14.3812 0.0928967 -0.446161
HEad  -26.1835 -13.2649 0.198213
LeftShoulder1  10.1834 -21.8183 -34.0696
LeftArm  -22.8253 -48.8135 -21.133
LeftForeArm  23.1418 -9.48941 -5.37705
LeftHand  -0.25398 0.0180481 5.50724
RightShoulder  4.47274 13.3978 20.0472
RightArm  -28.0358 43.2892 20.9851
RightForeArm  0.778373 -4.82075 3.3781
RightHand  -1.19247 6.08854 -12.4199
LeftUpLeg  -44.0619 13.7621 -10.098
LeftLeg  54.3219 4.62531 7.44033
LeftFoot  -3.52987 -0.146707 2.27755
LeftToes  1.06245e-005 4.65855e-005 -8.18504e-006
85
root  -34.5837 38.0139 -28.0158 -68.3041 -84.855 78.9532
RightUpLeg  -47.9661 -25.6469 6.22735
RightLeg  27.6742 -0.0537997 -0.268514
RightFoot  7.857 1.75185 -10.0099
RightToes  0.00048216 0.542163 -0.142577
Spine  57.7821 -4.62961 9.07163
Spine1  12.5722 0.280841 -0.746367
HEad  -29.225 -13.7076 1.06876
LeftShoulder1  10.2475 -23.2723 -32.1184
LeftArm  -25.6975 -52.5814 -18.4845
LeftForeArm  22.1177 -7.98312 -5.21204
LeftHand  -0.25398 0.0180481 5.50724
RightShoulder  4.20871 13.5815 18.0709
RightArm  -32.9578 46.6456 16.1427
RightForeArm  -2.4269 -4.93547 2.84803
RightHand  -1.18168 6.39515 -12.0083
LeftUpLeg  -46.8408 13.2153 -11.7534
LeftLeg  44.8605 2.95726 3.6226
LeftFoot  -5.76372 0.117035 -1.49263
LeftToes  1.06245e-005 4.65855e-005 -8.18504e-006
86
root  -35.1279 37.98 -28.3642 -67.1185 -84.8278 81.1904
RightUpLeg  -51.7345 -24.5249 7.85167
RightLeg  29.1298 -0.855602 -0.757801
RightFoot  6.3359 1.70842 -10.6637
RightToes  0.00048216 0.542163 -0.142577
Spine  59.7093 -5.04812 9.80824
Spine1  12.3337 0.846079 -1.80345
HEad  -32.7461 -14.2481 2.29809
LeftShoulder1  9.92595 -24.8728 -28.7337
LeftArm  -29.9931 -56.848 -15.4762
LeftForeArm  20.4304 -6.27795 -4.54002
LeftHand  -0.25398 0.0180481 5.50724
RightShoulder  3.9391 13.8373 15.9948
RightArm  -38.7531 49.2243 9.58064
RightForeArm  -4.81085 -4.34431 2.37562
RightHand  -1.03866 6.18182 -10.7925
LeftUpLeg  -48.9725 13.0908 -12.8949
LeftLeg  34.4668 -0.151251 0.240494
LeftFoot  -4.02417 0.354023 -5.12113
LeftToes  1.06245e-005 4.65855e-005 -8.18504e-006
